<svg xmlns="http://www.w3.org/2000/svg" xmlns:xlink="http://www.w3.org/1999/xlink"><symbol id="sprite-3stars" fill="none" viewBox="0 0 84 16"><path fill="#fff" d="m7.63 11.7 4.72 2.6-1.25-4.92 4.17-3.31-5.5-.43-2.14-4.64-2.14 4.64-5.49.43 4.17 3.31-1.25 4.92zm17 0 4.72 2.6-1.25-4.92 4.17-3.31-5.5-.43-2.14-4.64-2.14 4.64-5.49.43 4.17 3.3-1.25 4.93zm17 0 4.72 2.6-1.25-4.92 4.17-3.31-5.5-.43-2.14-4.64-2.14 4.64-5.49.43 4.17 3.3-1.25 4.93z"/><path fill="#fff" fill-rule="evenodd" d="m58.63 10.55 3.18 1.76-.83-3.31 2.68-2.13-3.54-.28-1.49-3.2-1.48 3.2-3.54.28 2.68 2.13-.84 3.3zm-4.71 3.75 1.24-4.92-4.16-3.31 5.49-.43 2.14-4.64 2.15 4.64 5.49.43-4.17 3.31 1.25 4.92-4.72-2.6zm21.71-3.75 3.19 1.76-.84-3.31 2.68-2.13-3.54-.28-1.49-3.2-1.48 3.2-3.54.28 2.68 2.13-.84 3.3zm-4.71 3.75 1.24-4.92-4.16-3.31 5.49-.43 2.14-4.64 2.15 4.64 5.49.43-4.17 3.31 1.25 4.92-4.72-2.6z" clip-rule="evenodd"/></symbol><use xlink:href="#sprite-3stars" width="84" height="16"/><view id="sprite-3stars-view" viewBox="0 0 84 16"/><symbol id="sprite-4stars" fill="none" viewBox="0 0 84 16"><path fill="#fff" d="m7.63 11.7 4.72 2.6-1.25-4.92 4.17-3.31-5.5-.43-2.14-4.64-2.14 4.64-5.49.43 4.17 3.31-1.25 4.92zm17 0 4.72 2.6-1.25-4.92 4.17-3.31-5.5-.43-2.14-4.64-2.14 4.64-5.49.43 4.17 3.3-1.25 4.93zm17 0 4.72 2.6-1.25-4.92 4.17-3.31-5.5-.43-2.14-4.64-2.14 4.64-5.49.43 4.17 3.3-1.25 4.93zm17 0 4.72 2.6-1.25-4.92 4.17-3.31-5.5-.43-2.14-4.64-2.14 4.64-5.49.43 4.17 3.3-1.25 4.93z"/><path fill="#fff" fill-rule="evenodd" d="m75.63 10.55 3.19 1.76-.84-3.31 2.68-2.13-3.54-.28-1.49-3.2-1.48 3.2-3.54.28 2.68 2.13-.84 3.3zm-4.71 3.75 1.24-4.92-4.16-3.31 5.49-.43 2.14-4.64 2.15 4.64 5.49.43-4.17 3.31 1.25 4.92-4.72-2.6z" clip-rule="evenodd"/></symbol><use xlink:href="#sprite-4stars" width="84" height="16" y="16"/><view id="sprite-4stars-view" viewBox="0 16 84 16"/><symbol id="sprite-5stars" fill="none" viewBox="0 0 84 16"><path fill="#fff" d="m7.63 11.7 4.72 2.6-1.25-4.92 4.17-3.31-5.5-.43-2.14-4.64-2.14 4.64-5.49.43 4.17 3.31-1.25 4.92zm17 0 4.72 2.6-1.25-4.92 4.17-3.31-5.5-.43-2.14-4.64-2.14 4.64-5.49.43 4.17 3.3-1.25 4.93zm17 0 4.72 2.6-1.25-4.92 4.17-3.31-5.5-.43-2.14-4.64-2.14 4.64-5.49.43 4.17 3.3-1.25 4.93zm17 0 4.72 2.6-1.25-4.92 4.17-3.31-5.5-.43-2.14-4.64-2.14 4.64-5.49.43 4.17 3.3-1.25 4.93zm17 0 4.72 2.6-1.25-4.92 4.17-3.31-5.5-.43-2.14-4.64-2.14 4.64-5.49.43 4.17 3.3-1.25 4.93z"/></symbol><use xlink:href="#sprite-5stars" width="84" height="16" y="32"/><view id="sprite-5stars-view" viewBox="0 32 84 16"/><symbol id="sprite-arrow-right" fill="none" viewBox="0 0 9 14"><path stroke="#2D383F" stroke-width="2" d="m1 13 6-6-6-6"/></symbol><use xlink:href="#sprite-arrow-right" width="9" height="14" y="48"/><view id="sprite-arrow-right-view" viewBox="0 48 9 14"/><symbol id="sprite-boots" fill="none" viewBox="0 0 22 22"><path fill="#0266C1" d="M20.72 14.24c.62-2.1.1-4.47-.44-6.12a.4.4 0 0 0-.05-.18 15 15 0 0 0-.5-1.29.8.8 0 0 0 .45-.7v-3.19c0-.42-.32-.76-.71-.76h-8.73c-.2 0-.36.17-.36.38v.02c.12 2.3-.03 3.86-.48 4.95l-.03.04v.05a4 4 0 0 1-.69 1.08l-.03.03v.02a5 5 0 0 1-1.42 1.04q-1.37.65-2.8 1.12l-.18.07c-3.32 1.18-3.76 3.33-3.75 4.4v2.78q.01.21.17.33a10 10 0 0 0 2.61 1.21c.19.06.39-.06.44-.26l.01-.12v-.09h.52v.38a.4.4 0 0 0 .3.39q.47.08.92.12a.3.3 0 0 0 .27-.1.4.4 0 0 0 .11-.28v-.49h.53v.55c0 .2.16.38.35.38q.44.01.92-.05c.18-.01.32-.18.32-.38v-.5h.53v.34c0 .21.15.39.35.39h.06a11 11 0 0 0 1.92-.5l.06-.03c2.48-1.53 4.06-.27 4.12-.21a.3.3 0 0 0 .22.08h.44c.2 0 .35-.18.35-.39v-.64h.51v.64c0 .2.16.38.36.38h1.14c.2 0 .36-.17.36-.38v-.64h.52v.64c0 .2.16.38.36.38h.87c.2 0 .36-.17.36-.38v-4.12a.4.4 0 0 0-.29-.39m-8.42-11.47h7.16v3.17h-7.16zm-4.46 7.62v.03q.44.38.8.84a1 1 0 0 0-.1.38c0 .4.3.74.68.74s.68-.32.68-.73c0-.38-.26-.7-.62-.73a6 6 0 0 0-.76-.9q.48-.3.9-.68.51.52.95 1.12c-.12.38.06.8.42.93.35.13.74-.07.86-.45a.75.75 0 0 0-.41-.93l-.23-.04h-.09a11 11 0 0 0-1.01-1.2q.25-.33.44-.71.83.46 1.6 1.03c0 .4.3.74.67.75.38 0 .7-.33.7-.73 0-.41-.3-.75-.68-.75a1 1 0 0 0-.32.08 16 16 0 0 0-1.67-1.07c.39-1.1.56-2.58.48-4.58h.46v3.16c0 .43.32.77.71.77h6.66q.15.31.42 1.01h-.15c-2.16.02-3.9 1.91-3.88 4.24.01 1.32.6 2.55 1.58 3.34-2.87.81-7.2 1.78-10.83 1.53.67-2.89-.13-4.66-.65-5.44a23 23 0 0 0 2.39-1m-3.1 1.21c.38.49 1.38 2.12.64 5.12a8.5 8.5 0 0 1-3.64-1.18l-.02-.27v-.02c-.03-.82.25-2.58 3.01-3.65m15.4 6.75v-.63c0-.21-.16-.39-.35-.39h-1.23c-.2 0-.36.18-.36.39v.63h-.44v-.63c0-.21-.15-.39-.35-.39h-1.23c-.2 0-.35.18-.35.39v.62c-.48-.33-2.25-1.27-4.75.24q-.67.23-1.36.38v-.27c0-.2-.16-.38-.36-.38h-1.22c-.2 0-.36.17-.36.38v.53h-.18v-.54c0-.2-.16-.38-.35-.38h-1.24c-.2 0-.35.17-.35.38v.46l-.18-.03v-.43c0-.2-.16-.38-.36-.38h-1.23a.4.4 0 0 0-.35.34 9 9 0 0 1-1.82-.88v-1.37c1.55.89 3.55 1.22 5.69 1.22 5.66 0 12.13-2.33 12.9-2.61v3.35zm-.17-4.03c-.3.1-1.04.38-2.07.68a3.56 3.56 0 0 1-1.48-4.6 3.2 3.2 0 0 1 2.82-1.94l.42.02v.02c.53 1.62 1 3.93.3 5.82"/><path fill="#0266C1" d="M13.66 3.24c-.57 0-1.04.5-1.04 1.1 0 .62.47 1.12 1.04 1.12s1.03-.5 1.03-1.11-.46-1.12-1.03-1.12m0 1.46c-.18 0-.33-.15-.33-.34s.15-.35.33-.35.32.15.32.35-.14.34-.32.34"/></symbol><use xlink:href="#sprite-boots" width="22" height="22" y="62"/><view id="sprite-boots-view" viewBox="0 62 22 22"/><symbol id="sprite-cross" fill="none" viewBox="0 0 26 26"><path stroke="#fff" stroke-width="2" d="m2.36 2.36 10.64 10.64m10.64 10.64-10.64-10.64m0 0 10.64-10.64-21.28 21.28"/></symbol><use xlink:href="#sprite-cross" width="26" height="26" y="84"/><view id="sprite-cross-view" viewBox="0 84 26 26"/><symbol id="sprite-crown" fill="none" viewBox="0 0 24 24"><path stroke="#0266C1" d="M19.3 21.82h-14.6m18.21-14.06-3.2 10.57h-15.43l-3.19-10.57 6.3 3.82 4.61-9.4 4.61 9.4z"/></symbol><use xlink:href="#sprite-crown" width="24" height="24" y="110"/><view id="sprite-crown-view" viewBox="0 110 24 24"/><symbol id="sprite-guard" fill="none" viewBox="0 0 24 24"><path stroke="#0266C1" d="m9.55 11.9 2.45 2.45 4.3-4.28m-4.3-8.98a18 18 0 0 1-9.4 1.95 18 18 0 0 0-.14 6.97 18 18 0 0 0 6.17 10.67 18 18 0 0 0 3.37 2.23 18 18 0 0 0 3.37-2.23 18 18 0 0 0 6.17-10.67c.42-2.33.36-4.7-.14-6.97a18 18 0 0 1-9.4-1.95Z"/></symbol><use xlink:href="#sprite-guard" width="24" height="24" y="134"/><view id="sprite-guard-view" viewBox="0 134 24 24"/><symbol id="sprite-leaf" fill="none" viewBox="0 0 24 24"><path stroke="#0266C1" stroke-linecap="round" stroke-linejoin="round" d="M11.66 17.72a10.6 10.6 0 0 0-5.9-7.14 11 11 0 0 0-4.67-1.04c.1 2.21.91 4.36 2.37 6.13a11 11 0 0 0 8.47 3.97q-.04-.96-.27-1.92m0 0c-.6-2.56-2.18-4.8-4.38-6.28l.13-.66a10.5 10.5 0 0 1 4.59-6.42 10.5 10.5 0 0 1 4.59 6.42l.13.66a10.5 10.5 0 0 0-4.38 6.28m-.68 0q.23.96.27 1.92h.13a11 11 0 0 0 2.71-.33l.02-.02q-1.33.33-2.72.35m.27-1.92a10.6 10.6 0 0 1 5.9-7.14 11 11 0 0 1 4.67-1.04 10.3 10.3 0 0 1-2.37 6.13 11 11 0 0 1-8.47 3.97m.27-1.92q-.23.96-.27 1.92"/></symbol><use xlink:href="#sprite-leaf" width="24" height="24" y="158"/><view id="sprite-leaf-view" viewBox="0 158 24 24"/><symbol id="sprite-level" fill="none" viewBox="0 0 12 12"><g stroke="#fff" stroke-linecap="round" stroke-miterlimit="16" clip-path="url(#a)"><path d="M10.9 11.46h-1.95v-10.92h1.96zm-3.92 0v-7.94h-1.96v7.93zm-3.93 0v-4.97h-1.96v4.97z"/></g><defs><clipPath id="a"><path fill="#fff" d="M0 0h12v12h-12z"/></clipPath></defs></symbol><use xlink:href="#sprite-level" width="12" height="12" y="182"/><view id="sprite-level-view" viewBox="0 182 12 12"/><symbol id="sprite-logo" fill="none" viewBox="0 0 410 404"><path fill="url(#a)" d="m399.64 59.53-184 329.02a10 10 0 0 1-17.41.07l-187.65-329.06a10 10 0 0 1 10.45-14.8l184.2 32.92a10 10 0 0 0 3.55 0l180.34-32.87a10 10 0 0 1 10.52 14.72"/><path fill="url(#b)" d="m292.96 1.57-136.16 26.69a5 5 0 0 0-4.03 4.6l-8.38 141.47a5 5 0 0 0 6.12 5.17l37.91-8.75a5 5 0 0 1 6.02 5.87l-11.26 55.15a5 5 0 0 0 6.35 5.79l23.42-7.11a5 5 0 0 1 6.35 5.8l-17.9 86.62c-1.12 5.42 6.09 8.38 9.1 3.73l2-3.1 110.95-221.43a5 5 0 0 0-5.41-7.15l-39.03 7.53a5 5 0 0 1-5.75-6.3l25.47-88.28a5 5 0 0 0-5.77-6.3"/><defs><linearGradient id="a" x1="6" x2="235" y1="33" y2="344" gradientUnits="userSpaceOnUse"><stop stop-color="#41D1FF"/><stop offset="1" stop-color="#BD34FE"/></linearGradient><linearGradient id="b" x1="194.651" x2="236.076" y1="8.818" y2="292.989" gradientUnits="userSpaceOnUse"><stop stop-color="#FFEA83"/><stop offset=".083" stop-color="#FFDD35"/><stop offset="1" stop-color="#FFA800"/></linearGradient></defs></symbol><use xlink:href="#sprite-logo" width="410" height="404" y="194"/><view id="sprite-logo-view" viewBox="0 194 410 404"/><symbol id="sprite-mail" fill="none" viewBox="0 0 22 16"><path stroke="#2D383F" stroke-linecap="round" stroke-linejoin="round" d="M21 2.56v10.88c0 .86-.64 1.56-1.43 1.56h-17.14c-.8 0-1.43-.7-1.43-1.56v-10.88m20 0c0-.86-.64-1.56-1.43-1.56h-17.14c-.8 0-1.43.7-1.43 1.56m20 0-8.14 7.6c-1.07 1-2.65 1-3.72 0l-8.14-7.6"/></symbol><use xlink:href="#sprite-mail" width="22" height="16" y="598"/><view id="sprite-mail-view" viewBox="0 598 22 16"/><symbol id="sprite-map" fill="none" viewBox="0 0 25 25"><path fill="#2D383F" d="M24.17 22.28v-15.58a.46.46 0 0 0-.6-.46v.02l-2.09.65a6 6 0 0 0 .39-1.82 5.1 5.1 0 0 0-10.19 0 6 6 0 0 0 .36 1.74l-3.45-1.23h-.16l-.16.03-7.14 2.78a.5.5 0 0 0-.3.39v15.6a.46.46 0 0 0 .63.43l6.98-2.7 7.97 2.85q.15.05.3 0l7.14-2.24a.5.5 0 0 0 .32-.46m-7.4-21.35a4.17 4.17 0 0 1 4.17 4.16c0 1.81-2.72 6.82-4.17 9.27-1.45-2.47-4.16-7.48-4.16-9.27a4.17 4.17 0 0 1 4.16-4.16m6.49 21.03-6.24 1.95v-3.53a.46.46 0 0 0-.92 0v3.5l-7.2-2.58v-2.96a.46.46 0 0 0-.93 0v2.96l-6.22 2.43v-7.16l2.3-.93a.46.46 0 1 0-.35-.86l-1.95.79v-6.45l6.22-2.4v1.38a.46.46 0 0 0 .93 0v-1.4l3.55 1.27a64 64 0 0 0 3.92 7.55.46.46 0 0 0 .8 0 65 65 0 0 0 3.9-7.5l2.17-.69.02 7.6-2.35.56a.47.47 0 0 0 .1.93h.12l2.13-.52z"/><path fill="#2D383F" d="M16.76 2.4a2.69 2.69 0 1 0 0 5.39 2.69 2.69 0 0 0 0-5.39m0 4.46a1.77 1.77 0 0 1-1.75-1.77h-.02a1.76 1.76 0 1 1 1.77 1.77m-6.06 7.1v.02l-2.24-.97a.5.5 0 0 0-.36 0l-1.9.77a.46.46 0 0 0 .35.86l1.72-.7 2.06.88.18.04a.46.46 0 0 0 .19-.9m7.57 2.66a.46.46 0 0 0-.52-.32v-.04l-1.15.28-1.94-.85a.47.47 0 0 0-.37.86l2.08.92.19.04h.1l1.3-.32a.46.46 0 0 0 .3-.57"/></symbol><use xlink:href="#sprite-map" width="25" height="25" y="614"/><view id="sprite-map-view" viewBox="0 614 25 25"/><symbol id="sprite-menu" fill="none" viewBox="0 0 26 26"><path fill="#fff" d="M0 3.55h26v2.17h-26zm0 16.74h26v2.17h-26zm0-8.37h16.64v2.16h-16.64z"/></symbol><use xlink:href="#sprite-menu" width="26" height="26" y="639"/><view id="sprite-menu-view" viewBox="0 639 26 26"/><symbol id="sprite-moon" fill="none" viewBox="0 0 12 12"><g clip-path="url(#a)"><path fill="#fff" d="M11.2 6.75a.4.4 0 0 0-.32.07q-.55.47-1.24.73a4 4 0 0 1-1.41.25 4 4 0 0 1-2.9-1.2 4 4 0 0 1-1.2-2.91q0-.72.22-1.36a4 4 0 0 1 .67-1.2.36.36 0 0 0-.06-.5.4.4 0 0 0-.32-.07 5.6 5.6 0 0 0-2.95 1.98 5.55 5.55 0 0 0 .47 7.3 5.5 5.5 0 0 0 3.9 1.61 5.5 5.5 0 0 0 3.42-1.19 5.5 5.5 0 0 0 1.95-3.06.34.34 0 0 0-.23-.45m-2.14 2.93a4.8 4.8 0 0 1-6.35-.38 4.8 4.8 0 0 1-1.41-3.4c0-1.1.36-2.11.99-2.92a5 5 0 0 1 1.6-1.35 5 5 0 0 0-.46 2.07c0 1.33.54 2.55 1.4 3.42a4.8 4.8 0 0 0 3.41 1.41q.88 0 1.66-.3.27-.09.53-.22a5 5 0 0 1-1.37 1.67"/></g><defs><clipPath id="a"><path fill="#fff" d="M0 0h12v12h-12z"/></clipPath></defs></symbol><use xlink:href="#sprite-moon" width="12" height="12" y="665"/><view id="sprite-moon-view" viewBox="0 665 12 12"/><symbol id="sprite-mountain" fill="none" viewBox="0 0 25 25"><path fill="#2D383F" d="m23.42 24.19-4.05-9.4-3.81-8.88a.48.48 0 0 0-.88 0l-3.4 7.9-1.34 3.1-2.93-6.75a.48.48 0 0 0-.88 0l-2.75 6.36-3.34 7.66a.48.48 0 0 0 .44.67h22.5a.48.48 0 0 0 .43-.66m-8.3-16.9 3.1 7.2h-1.09l-1.96-2.17a.48.48 0 0 0-.76.07l-.73 1.13h-1.23zm-8.54 4.24 2.45 5.66h-1.34a.5.5 0 0 0-.4.22l-.48.76-1.23-1.74a.5.5 0 0 0-.39-.2h-.63zm-5.34 12.37 2.9-6.72h.8l1.5 2.12a.5.5 0 0 0 .38.2.5.5 0 0 0 .4-.21l.73-1.14h1.49l2.48 5.73zm11.73 0-2.5-5.77 1.57-3.65h1.9a.5.5 0 0 0 .4-.23l.54-.81 1.68 1.87q.15.15.36.15h1.7l3.64 8.45zm-5.35-21.82a2.25 2.25 0 0 0-4.35.8v.26a2.25 2.25 0 0 0 .9 4.29l.03.02h3.34a2.68 2.68 0 1 0 .08-5.37m-.05 4.43h-3.34a1.3 1.3 0 1 1-.27-2.59.5.5 0 0 0 .36-.62 1.3 1.3 0 1 1 2.5-.64c.05.25.28.42.54.39h.21a1.73 1.73 0 0 1 0 3.46m16.14-3.87v-.25a2.25 2.25 0 0 0-4.35-.82 2.68 2.68 0 0 0 .1 5.36h3.34a2.25 2.25 0 0 0 .9-4.3m.37 2.32a1.3 1.3 0 0 1-1.25 1.02h-3.34a1.73 1.73 0 0 1 0-3.46h.21a.5.5 0 0 0 .52-.37 1.3 1.3 0 1 1 2.5.65.5.5 0 0 0 .36.62c.7.15 1.15.84 1 1.54"/></symbol><use xlink:href="#sprite-mountain" width="25" height="25" y="677"/><view id="sprite-mountain-view" viewBox="0 677 25 25"/><symbol id="sprite-ok" fill="none" viewBox="0 0 9 16"><path fill="#2D383F" d="M4.5 2.42c.92 0 1.66.77 1.66 1.71s-.74 1.7-1.66 1.7-1.66-.76-1.66-1.7.74-1.71 1.66-1.71m0 5.84a4.1 4.1 0 0 0 4.01-4.13c0-2.28-1.8-4.13-4.01-4.13s-4 1.85-4 4.13 1.79 4.13 4 4.13m1.62 3.37a7 7 0 0 0 2.33-1 1.23 1.23 0 0 0 .37-1.66 1.15 1.15 0 0 0-1.62-.38 5 5 0 0 1-5.4 0 1.15 1.15 0 0 0-1.62.38 1.23 1.23 0 0 0 .37 1.66 7 7 0 0 0 2.33 1l-2.24 2.3a1.24 1.24 0 0 0 0 1.71 1.16 1.16 0 0 0 1.66 0l2.2-2.26 2.2 2.26c.46.48 1.2.48 1.66 0a1.24 1.24 0 0 0 0-1.7z"/></symbol><use xlink:href="#sprite-ok" width="9" height="16" y="702"/><view id="sprite-ok-view" viewBox="0 702 9 16"/><symbol id="sprite-path" fill="none" viewBox="0 0 24 24"><path stroke="#0266C1" stroke-linecap="round" d="M19.8 9.56h-5.85a3.3 3.3 0 0 0-3.31 3.34 3.3 3.3 0 0 0 3.3 3.34h2.54c1.83 0 3.31 1.49 3.31 3.33s-1.48 3.34-3.31 3.34h-12.27m3.12-5.53c0-1.74-1.4-3.14-3.12-3.14s-3.12 1.4-3.12 3.14v.12c0 .68.22 1.36.62 1.91l2.5 3.46q0 0 0 0l2.5-3.46a3.3 3.3 0 0 0 .61-1.91zm-2.52-1.3.02.01c.38.18.65.53.75.94a1.4 1.4 0 0 1-1.36 1.7h-.03a1.4 1.4 0 0 1-1.35-1.7c.1-.41.37-.76.75-.94h.02a1.4 1.4 0 0 1 1.2 0Zm18.1-11.83c0-1.73-1.4-3.16-3.12-3.16s-3.11 1.43-3.11 3.16c0 .69.21 1.36.62 1.9l2.49 3.37q0 0 0 0l2.5-3.37a3.2 3.2 0 0 0 .62-1.9Zm-2.52-1.36.04.02a1.34 1.34 0 0 1 .46 2.06l-.01.01a1.4 1.4 0 0 1-1.05.5h-.07c-.4 0-.8-.18-1.05-.5l-.02-.01a1.34 1.34 0 0 1 .47-2.06l.04-.02a1.4 1.4 0 0 1 1.19 0Z"/></symbol><use xlink:href="#sprite-path" width="24" height="24" y="718"/><view id="sprite-path-view" viewBox="0 718 24 24"/><symbol id="sprite-phone" fill="none" viewBox="0 0 22 22"><path stroke="#2D383F" stroke-linecap="round" stroke-linejoin="round" d="M19.32 20.04a1.7 1.7 0 0 1-1.68.95 18.8 18.8 0 0 1-11.24-5.41 19 19 0 0 1-5.4-11.29 1.7 1.7 0 0 1 .95-1.68l2.75-1.41c1.07-.55 2.36.09 2.73 1.23a19 19 0 0 0 1.3 3.02c.4.76.13 1.74-.66 2.1a1.8 1.8 0 0 0-.52 2.9l3.95 3.98a1.8 1.8 0 0 0 2.9-.53 1.6 1.6 0 0 1 2.21-.72l.6.3q1.14.53 2.33.9c1.16.36 1.81 1.67 1.26 2.75z"/></symbol><use xlink:href="#sprite-phone" width="22" height="22" y="742"/><view id="sprite-phone-view" viewBox="0 742 22 22"/><symbol id="sprite-pin" fill="none" viewBox="0 0 9 12"><path fill="#fff" d="M4.5 0a4.46 4.46 0 0 0-4.5 4.42q0 .95.4 1.8a28 28 0 0 0 3.91 5.7.25.25 0 0 0 .38 0c.63-.73 2.8-3.28 3.92-5.7a4 4 0 0 0 .39-1.8 4.46 4.46 0 0 0-4.5-4.42m0 6.71a2.3 2.3 0 0 1-2.34-2.3c0-1.26 1.05-2.29 2.34-2.29s2.34 1.03 2.34 2.3-1.05 2.3-2.34 2.3"/></symbol><use xlink:href="#sprite-pin" width="9" height="12" y="764"/><view id="sprite-pin-view" viewBox="0 764 9 12"/><symbol id="sprite-pin_black" fill="none" viewBox="0 0 16 22"><path stroke="#2D383F" stroke-linecap="round" stroke-linejoin="round" d="M15.5 8.15c0-3.95-3.36-7.15-7.5-7.15s-7.5 3.2-7.5 7.15v.43c0 1.58.52 3.12 1.48 4.4l6 8.01h.03l6-8a7.3 7.3 0 0 0 1.49-4.41z"/><path stroke="#2D383F" stroke-linecap="round" stroke-linejoin="round" d="M6.53 5.29a3.5 3.5 0 0 1 2.94 0c.92.42 1.6 1.23 1.82 2.18a3.1 3.1 0 0 1-.65 2.73 3.4 3.4 0 0 1-2.64 1.21c-1.03 0-2-.45-2.64-1.21a3.1 3.1 0 0 1-.65-2.73c.23-.95.9-1.76 1.82-2.18"/></symbol><use xlink:href="#sprite-pin_black" width="16" height="22" y="776"/><view id="sprite-pin_black-view" viewBox="0 776 16 22"/><symbol id="sprite-reddit" fill="none" viewBox="0 0 14 15"><path fill="#2D383F" d="M8.36 0c-.45 0-.87.24-1.14.6s-.42.78-.53 1.23c-.17.73-.22 1.53-.23 2.26a7 7 0 0 0-3.36 1.1 2 2 0 0 0-1.3-.53c-.5.01-.98.24-1.34.72-.68.92-.6 2.42.19 3.31a5 5 0 0 0-.08.84c0 3.02 2.88 5.47 6.43 5.47s6.43-2.45 6.43-5.47a5 5 0 0 0-.08-.84c.79-.89.87-2.39.19-3.3a1.7 1.7 0 0 0-1.35-.73c-.44 0-.9.2-1.3.54a7 7 0 0 0-3.33-1.11c.02-.67.06-1.37.19-1.9q.12-.49.27-.69c.15-.2.17-.19.34-.19.37 0 .41.13.63.44q.15.23.44.53c.2.19.51.35.84.35v-1.32c-.1 0-.11 0-.17-.06q-.09-.1-.27-.37c-.26-.35-.74-.88-1.47-.88m3.54.12c-.84 0-1.53.83-1.53 1.85 0 1.03.69 1.85 1.53 1.85s1.53-.82 1.53-1.85c0-1.02-.68-1.85-1.53-1.85m0 .66c.55 0 .99.54.99 1.2s-.44 1.18-.99 1.18-.98-.53-.98-1.19.44-1.19.98-1.19m-4.9 4.34c3.02 0 5.57 2.02 5.57 4.41s-2.56 4.42-5.57 4.42-5.57-2.02-5.57-4.42 2.55-4.41 5.57-4.41m-5.17.6q.22 0 .46.12-.83.75-1.28 1.72c-.2-.5-.15-1.14.1-1.48a.9.9 0 0 1 .72-.37m10.35 0a.9.9 0 0 1 .7.37c.26.34.32.97.11 1.48a5 5 0 0 0-1.28-1.72q.24-.12.46-.13m-7.35 1.65c-.54 0-.99.53-.99 1.19s.45 1.19.99 1.19c.55 0 .99-.53.99-1.2 0-.65-.44-1.18-.99-1.18m4.36 0c-.55 0-.99.53-.99 1.19s.44 1.19.99 1.19.99-.53.99-1.2c0-.65-.45-1.18-1-1.18m-4.88 4.04c.35.87 1.42 1.71 2.71 1.71s2.38-.84 2.72-1.7c-.63.48-1.62.82-2.72.82s-2.08-.34-2.7-.83"/></symbol><use xlink:href="#sprite-reddit" width="14" height="15" y="798"/><view id="sprite-reddit-view" viewBox="0 798 14 15"/><symbol id="sprite-right-button-arrow" fill="none" viewBox="0 0 14 9"><path fill="#fff" d="M13.35 4.85a.5.5 0 0 0 0-.7l-3.18-3.19a.5.5 0 0 0-.7.71l2.82 2.83-2.83 2.83a.5.5 0 1 0 .71.7zm-13.35.15h13v-1h-13z"/></symbol><use xlink:href="#sprite-right-button-arrow" width="14" height="9" y="813"/><view id="sprite-right-button-arrow-view" viewBox="0 813 14 9"/><symbol id="sprite-sun" fill="none" viewBox="0 0 20 20"><path fill="#fff" d="M13.55 6.46a5 5 0 0 0-3.55-1.49 5 5 0 0 0-3.54 1.49c-.9.9-1.49 2.17-1.49 3.54a5.05 5.05 0 0 0 5.03 5.03 5 5 0 0 0 3.55-1.48c.9-.9 1.48-2.18 1.48-3.55a5 5 0 0 0-1.48-3.54m-.96 6.13a3.7 3.7 0 0 1-2.59 1.06 3.7 3.7 0 0 1-2.6-1.06 3.7 3.7 0 0 1-1.05-2.59 3.7 3.7 0 0 1 1.06-2.6 3.7 3.7 0 0 1 2.59-1.05 3.7 3.7 0 0 1 2.6 1.06 3.7 3.7 0 0 1 1.05 2.59 3.7 3.7 0 0 1-1.06 2.6m6.72-3.29h-2.03a.7.7 0 0 0-.7.69.7.7 0 0 0 .7.69h2.03a.7.7 0 0 0 .69-.69.7.7 0 0 0-.69-.69m-9.31 7.28a.7.7 0 0 0-.69.68v2.04a.7.7 0 0 0 .69.69.7.7 0 0 0 .69-.69v-2.03a.7.7 0 0 0-.69-.7m7.06-.47-1.45-1.45c-.24-.27-.69-.27-.95 0a.67.67 0 0 0 0 .95l1.45 1.45a.67.67 0 0 0 .95 0 .67.67 0 0 0 0-.95m-7.06-16.11a.7.7 0 0 0-.69.69v2.04a.7.7 0 0 0 .69.68.7.7 0 0 0 .69-.69v-2.03a.7.7 0 0 0-.69-.69m7.09 2.94a.67.67 0 0 0-.95 0l-1.46 1.45a.67.67 0 0 0 0 .95c.24.27.69.27.95 0l1.46-1.45a.67.67 0 0 0 0-.95m-14.36 6.37h-2.04a.7.7 0 0 0-.69.69c0 .37.3.69.69.69h2.04a.7.7 0 0 0 .68-.69.7.7 0 0 0-.69-.69m2.6 5.35c-.24-.27-.69-.27-.95 0l-1.46 1.45a.67.67 0 0 0 0 .95.67.67 0 0 0 .95 0l1.46-1.45a.67.67 0 0 0 0-.95m0-10.27-1.46-1.45a.67.67 0 0 0-.95 0 .67.67 0 0 0 0 .95l1.46 1.45a.67.67 0 0 0 .95 0 .67.67 0 0 0 0-.95"/></symbol><use xlink:href="#sprite-sun" width="20" height="20" y="822"/><view id="sprite-sun-view" viewBox="0 822 20 20"/><symbol id="sprite-tree" fill="none" viewBox="0 0 25 25"><path fill="#2D383F" d="m24.6 18.08-4.92-5.61h2.38a.5.5 0 0 0 .4-.8l-3.95-5.19h2a.5.5 0 0 0 .38-.83l-4.82-5.48a.5.5 0 0 0-.75 0l-4.83 5.48a.5.5 0 0 0 .38.83h2.03l-1.22 1.59-3.24-3.7a.5.5 0 0 0-.76 0l-4.12 4.69a.5.5 0 0 0 .38.83h1.58l-3.3 4.32a.5.5 0 0 0 .4.8h1.86l-4.08 4.68a.5.5 0 0 0 .38.83h5.54v3.5c0 .54.44.98.97.98h1.53a.97.97 0 0 0 .98-.97v-3.51h4.16v3.5c0 .55.44.98.97.98h1.53a.97.97 0 0 0 .97-.97v-5.11h6.79a.5.5 0 0 0 .37-.84m-15.8 5.92-1.47.03-.03-3.51h1.5zm5.17-4.48h-12.08l4.1-4.68a.5.5 0 0 0-.39-.84h-1.95l3.3-4.31a.5.5 0 0 0-.4-.8h-1.5l3-3.43 3.01 3.41-2.11 2.8a.5.5 0 0 0 .4.8h2.37l-4.9 5.62a.5.5 0 0 0 .37.83h6.78zm2.47 4.47-1.47.04-.03-5.11h1.5zm.03-6.08h-8.18l4.9-5.61a.5.5 0 0 0-.37-.83h-2.46l3.96-5.18a.5.5 0 0 0-.4-.8h-1.91l3.72-4.23 3.7 4.22h-1.94a.5.5 0 0 0-.4.81l3.94 5.18h-2.44a.5.5 0 0 0-.38.83l4.9 5.61z"/></symbol><use xlink:href="#sprite-tree" width="25" height="25" y="842"/><view id="sprite-tree-view" viewBox="0 842 25 25"/><symbol id="sprite-user" fill="none" viewBox="0 0 18 20"><path stroke="#163152" stroke-linecap="square" stroke-linejoin="round" d="M15.67 19h-13.34c-.73 0-1.33-.55-1.33-1.23a4.9 4.9 0 0 1 3.43-4.58l.41-.14a12.8 12.8 0 0 1 8.32 0l.4.14a4.9 4.9 0 0 1 3.44 4.58c0 .68-.6 1.23-1.33 1.23Zm-8.7-9.6a4.8 4.8 0 0 0 4.06 0 4.2 4.2 0 0 0 2.32-2.8l.08-.31a4.1 4.1 0 0 0-.84-3.54l-.12-.14c-.82-1.01-2.1-1.61-3.47-1.61s-2.65.6-3.47 1.6l-.12.15a4.1 4.1 0 0 0-.84 3.54l.08.32a4.2 4.2 0 0 0 2.32 2.8Z"/></symbol><use xlink:href="#sprite-user" width="18" height="20" y="867"/><view id="sprite-user-view" viewBox="0 867 18 20"/><symbol id="sprite-vk" fill="none" viewBox="0 0 16 9"><path fill="#2D383F" d="M15.86 8.03c-.05-.07-.31-.64-1.6-1.82-1.33-1.22-1.15-1.02.46-3.14q1.46-1.93 1.25-2.42c-.11-.32-.84-.24-.84-.24l-2.4.02s-.18-.03-.3.05c-.14.08-.22.26-.22.26s-.38 1-.9 1.85c-1.06 1.79-1.5 1.88-1.67 1.77-.4-.26-.3-1.04-.3-1.6 0-1.74.27-2.46-.52-2.65-.26-.06-.46-.1-1.12-.1-.86-.02-1.59 0-2 .2-.28.13-.49.42-.36.44.16.02.52.1.71.35.25.33.24 1.07.24 1.07s.14 2.05-.33 2.3c-.32.18-.77-.18-1.72-1.8-.5-.84-.87-1.76-.87-1.76s-.07-.17-.2-.27c-.15-.1-.36-.14-.36-.14l-2.29.01s-.34.01-.47.16c-.11.13 0 .4 0 .4s1.78 4.13 3.81 6.21c1.86 1.9 3.97 1.78 3.97 1.78h.96s.28-.03.43-.19c.14-.14.13-.41.13-.41s-.02-1.26.58-1.45c.59-.19 1.34 1.22 2.14 1.76.6.41 1.06.32 1.06.32l2.14-.03s1.12-.07.59-.93"/></symbol><use xlink:href="#sprite-vk" width="16" height="9" y="887"/><view id="sprite-vk-view" viewBox="0 887 16 9"/></svg>